<svg xmlns="http://www.w3.org/2000/svg" viewBox="0 0 587.78 207.97"><defs><style>.cls-1{fill:#1d1d1b;}</style></defs><g id="Capa_2" data-name="Capa 2"><g id="Capa_1-2" data-name="Capa 1"><path d="M410.18,99.3a46.11,46.11,0,0,1-1.82-5.38c-.57-2.73-2-4.34-4.82-4.46-2.43-.11-4.22,1.55-4.48,4.7-.4,4.88-.44,9.79-.59,14.69-.06,2.15,1.1,2.35,2.54,1.25q8.91-6.82,17.71-13.77c7.83-6.17,12.41-14.81,17.45-23.1.85-1.41.7-2.42-1.29-2.36-17.56.53-35,1.85-51.52,8.54-1.63.66-3.25,1.24-4.16-.84s.46-3.27,2.05-3.84c4.59-1.67,9.2-3.35,13.92-4.6,14.5-3.84,29.44-4.55,44.3-5.68a6,6,0,0,0,4.86-3.05q7-10.41,14-20.8a27.11,27.11,0,0,1,1.72-2.31c1.24-1.5,2.7-1.34,4.08-.31s1.61,2.45.56,4q-6.23,9.36-12.36,18.77a18.15,18.15,0,0,0-1,2.23c1.34,0,2.24,0,3.13,0,6-.22,11.93-.47,17.89-.64a19.06,19.06,0,0,1,4.59.35,4.89,4.89,0,0,1,3.41,6.75c-.69,1.84-1.84,2.27-3.61,1.71-8.73-2.75-17.71-2.27-26.61-1.5-2.11.18-4.6,2.17-5.94,4a112.27,112.27,0,0,0-8.92,14.39c-4.2,8.19-8.54,16.39-11.72,25-3.51,9.51-5.93,19.44-8.53,29.26-1.08,4.07-1.4,8.33-2.09,12.5a4.44,4.44,0,0,0,2.05,4.7c2.23,1.61,2.49,3.27.31,4.84-1.63,1.17-4.17,2.16-5.93,1.72-1.25-.31-2.74-3.17-2.64-4.81a183.75,183.75,0,0,1,2.14-19.16c1.93-11.71,5.8-22.88,10-33.94.67-1.76,1.56-3.45,2.62-5.78-1.16.48-1.85.56-2.24,1-5.41,5.46-11.82,9.48-18.57,13-1.6.84-1.61,1.78-1.06,3.28,3.44,9.2-3,18.49-10.12,22.08a8.6,8.6,0,0,1-4.49.61c-3.43-.32-5.39-3.41-3.84-6.46a12.47,12.47,0,0,1,4.4-4.67c3-1.81,6.77-7.8,6.43-11.23-.2-2-1.54-1.53-2.76-1-2.92,1.23-5.82,2.53-8.77,3.69a15,15,0,0,1-3.89,1c-3.6.36-5.41-1.25-5.67-4.87a5.72,5.72,0,0,0-.08-1.72,12.58,12.58,0,0,0-1.3-2,17.22,17.22,0,0,0-1.55,1.39,7.11,7.11,0,0,0-.95,1.45c-1.43,2.72-3.67,3.38-6.57,2.77-.88-.18-2.37-.11-2.76.43-4.47,6.16-11,9.87-16.9,14.29-9.3,7-18.95,13.48-29.7,18.11a73.53,73.53,0,0,1-23,6.11c-19.49,1.6-29.39-9.34-30-27.67-.38-11.09,2.51-21.57,6.68-31.66,8.34-20.2,20.44-38,35-54.24,13.42-14.91,28.68-27.59,46.59-36.79,9.7-5,19.77-9.25,30.92-9.18a19.39,19.39,0,0,1,10,2.89c5.08,3.33,5.4,8.8,4,14.26C387.94,30.08,381,40.9,371.87,50.43a6.51,6.51,0,0,1-2.7,2.07,5.08,5.08,0,0,1-3.81-.39c-1.42-1.08-1-2.66.22-4,3.2-3.57,6.57-7,9.45-10.86,4.7-6.24,8.63-12.92,10.27-20.75C386.7,9.75,383.93,5.6,377,6a55.76,55.76,0,0,0-16.51,3.5c-28.94,11.27-50.45,31.8-68.66,56.24a167,167,0,0,0-19.69,33.8c-4.43,10.31-8,20.92-7.62,32.3.23,7.95,2.32,15.32,9.88,19.67,4.43,2.54,9.36,3,14.29,2.35a73.77,73.77,0,0,0,23.79-7.53c15.3-7.54,28.55-18,41.51-28.94a8,8,0,0,0,2.34-3.71c2.27-7.77,5.95-14.41,13.73-17.89a23.42,23.42,0,0,1,5.72-1.89c3.82-.62,7.26,4.3,6.17,8.78-.61,2.51-1.56,4.94-2.31,7.42-.91,3,.23,4.6,3.38,4.83,8.31.62,8.63.15,8.89-8.11a94,94,0,0,1,1.59-16.53c2-9.31,14.47-9.67,19.1-5.84a7.54,7.54,0,0,1,2,2.76C416,90.4,413.65,97,410.18,99.3Zm-36.25,5.36-.91-.47c-3.56,2.2-6.58,7.82-4.9,10.89Z"/><path d="M71.2,68.27c4.33-4.49,8.72-9.62,13.72-14A64,64,0,0,1,97.5,45.8c4.25-2.24,7.51-.42,7.61,4.34a47.75,47.75,0,0,1-1.83,12.68c-.9,3.5-2.68,6.77-4,10.15a4.26,4.26,0,0,0-.08,1.3l.71.54,2.87-3.4c7.87-9.37,15.86-18.72,26.06-25.6,5.51-3.71,11.83-6.25,17.87-9.12a6.15,6.15,0,0,1,7.24,1.2c2,2,2,4.42,1.33,7-2,7.77-6.41,14.36-10.5,21.07a383.61,383.61,0,0,0-31.05,63C108,143.79,103.47,159,102.4,175a51.54,51.54,0,0,0,1.14,16c2.71,10.67,11.72,13.78,22.11,9.47,7.6-3.15,18.48-11.82,22.61-17.49-.3,8.49-16.19,22.08-25.69,24.33-12.67,3-23-3.7-25.82-16.49-2.22-10-.94-19.74.94-29.48,3.91-20.31,11.57-39.43,19.49-58.38,6.72-16.08,16.1-30.8,25.39-45.51,2.09-3.31,3.7-6.93,5.51-10.41,1-1.91.26-2.68-1.76-2.62-4.5.13-7.93,2.73-11.42,5.06-10.54,7-18.75,16.52-26.66,26.2C101.92,83.37,96.08,91.5,90,99.44c-.94,1.22-1.8,2.73-3.06,3.4s-3.46,1.2-4.7.63c-1-.45-1.89-3-1.49-4.06,1.83-5,4-9.93,6.3-14.78,3.49-7.47,7.26-14.82,10.66-22.32A30.37,30.37,0,0,0,99.44,55a2.75,2.75,0,0,0-.63-2.3c-.46-.34-1.63-.05-2.31.3-5.78,3-10.26,7.55-14.07,12.62C70.11,82,57.64,98.26,46,115.1c-7.13,10.33-12.78,21.67-19.15,32.52A20,20,0,0,1,23.05,153a4.72,4.72,0,0,1-4.32.26,4,4,0,0,1-1.32-3.76,173.65,173.65,0,0,1,8.5-17.59C40.84,106.09,56.1,80.51,71,54.73,76.59,45.1,81.9,35.27,85,24.45a31.56,31.56,0,0,0,1.13-5.92c.41-4.92-1.71-8-6.22-9.89C74.76,6.47,69.44,6.26,64,6.6c-12.71.8-24,5.64-34.87,11.93C21.8,22.8,15,27.77,9.74,34.6a12.86,12.86,0,0,0-2.93,9.69c.29,2.18.14,4.17-2.64,4.52A3.93,3.93,0,0,1,0,44.61,32.59,32.59,0,0,1,2.5,35.23c3.4-7.52,9.6-12.65,16.14-17.31C31.5,8.75,45.62,2.57,61.41.47c7.6-1,15-.56,22,2.88C89,6.1,91.9,10.6,91.9,16.93c0,6.72-2.24,12.91-5,18.84C81.89,46.82,76.38,57.66,71.2,68.27Z"/><path d="M502.09,115.14c-1.16.9-2,1.53-2.83,2.17-4.67,3.65-9.12,7.65-14.11,10.79a11.67,11.67,0,0,1-8.2,1.29,5.67,5.67,0,0,1-4.41-4.35c-.87-4,.31-13.14.51-14.87-1.52.78-2.51,1.21-3.41,1.78-5.31,3.37-10.87,6.12-17.11,7.32-4.68.9-9.18.9-12.17-3.53s-2-9.28.57-13.61c3.39-5.75,8.77-9.35,14.61-12.22a6.26,6.26,0,0,1,8,1.7,6.65,6.65,0,0,1-.81,8.72c-2.95,2.71-6.35,4.93-9.54,7.37-1.74,1.33-3.45,2.69-5.63,4.4,3.2,2,5.87,1.07,8.48.12,10.08-3.66,17.22-11,23.72-19.11a112,112,0,0,0,6.92-9.92c1.17-1.84,8.54-16.76,11-21.69,8.73-17.3,18.77-33.75,31.22-48.65a30.32,30.32,0,0,1,6-5.4c2-1.37,4.42-2.41,6.67-.54s1.9,4.53.72,6.87A89,89,0,0,1,537.06,23c-13.74,20.53-27.69,40.89-43.21,60.16-7.74,9.61-12.64,20.83-15.38,32.89-.53,2.34-1.23,5.92.54,7,2.61,1.68,5.27-.69,7-2a94.73,94.73,0,0,0,28.38-36.11c5.94-12.89,12.52-25.51,19.34-38A200.71,200.71,0,0,1,557.2,12.49a33.51,33.51,0,0,1,5.31-4.85c1.93-1.47,4.31-2,6.51-.77s2.05,3.85,1.19,5.71c-2.58,5.53-5,11.29-8.42,16.26-11.08,16-22.78,31.47-33.87,47.41a134.25,134.25,0,0,0-12.67,21.56c-3,6.66-6.13,13.42-6.11,21.22,0,1.38.44,3.77,1.48,4.4s3.55.39,4.75-.42a57.19,57.19,0,0,0,9.33-7.64c4.56-4.81,12.68-14.06,16.55-19.3,4.23-1.92-5.13,19.33-15.49,27.33-3.59,3.14-7.5,5.64-12.29,6.61-5.29,1.07-9.47-1.57-10.38-6.86C502.67,120.72,502.47,118.25,502.09,115.14ZM453.6,98.86c-4.37,0-8.66,5.37-7.56,9.66Z"/><path d="M186.79,100.21c2.36-.36,4.72-.87,7.09-1,2.06-.13,4.32-.34,6.16.36a6.92,6.92,0,0,0,6.91-.85,28.68,28.68,0,0,1,8.23-3.92c7-1.74,10.77,2.47,8.75,9.47-.59,2-1.22,4.05-1.83,6.08a4.35,4.35,0,0,0,1.74,5.32c1.92,1.29,3.39-.15,4.56-1.3,1.77-1.73,3.13-3.89,4.91-5.62.72-.7,2.38-1.28,3.09-.92a3.3,3.3,0,0,1,1.08,3c-2.61,7.47-12,14.29-19.86,9.43-2-1.21-3.19-3.67-5-5.85-1.12,1.31-2.62,3.09-4.15,4.83-1,1.15-1.9,2.66-3.19,3.25a7.31,7.31,0,0,1-4.8.42,3.81,3.81,0,0,1-2.73-4.54c.81-3.74,1.84-7.44,2.84-11.13a38.3,38.3,0,0,1,1.55-3.68c-4.52,1.19-8.22,2-11.79,3.17-2.46.82-4.67,1.53-7.13,0-.51-.32-2,.2-2.53.79-1.81,2-3.37,4.19-5.08,6.26-4.28,5.17-9.25,8.94-16.49,8.38-5.5-.43-7.44-2.2-7.93-7.64,0-.25-.23-.48-.59-1.18-.74.8-1.34,1.42-1.91,2.07-1.72,1.94-3.31,4-5.16,5.81-1.61,1.56-3.95,2.44-5.76,1-1.37-1.09-2.76-3.4-2.57-5,1.07-8.53,4.2-16.22,11.66-21.24a15.19,15.19,0,0,1,6.72-2.24c4.34-.43,7,2.19,6.84,6.54-.14,3-1.16,6-1.31,9.1-.09,2,.68,4,1.06,6,1.88-.66,4.38-.77,5.52-2.08,3.64-4.16,6.79-8.75,10.11-13.19,2.35-3.14,4.63-6.35,7.07-9.44a5.75,5.75,0,0,1,2.92-2.21c1.42-.26,3.62-.21,4.33.65s.46,3.11-.15,4.38a35.7,35.7,0,0,1-3.88,5.46Zm28.19,2.7c-3.66-.17-8.11,5.14-7.59,8.54Zm-70.9,8c3.3-2.76,6-7,5.84-9C146.6,103.44,143.66,107.79,144.08,110.91Z"/><path class="cls-1" d="M427.23,138.44a5.7,5.7,0,0,1,3.45.88,3.43,3.43,0,0,1,1.35,2.89,4.23,4.23,0,0,1-4.49,4.19,3.67,3.67,0,0,1-.55,0l-1.41-.37v3.18c0,1.71.15,1.75,2,2v.57H422v-.57c1.76-.18,1.84-.31,1.84-2V141c0-1.82-.23-1.86-1.84-2v-.57Zm-1.65,6.83a3.59,3.59,0,0,0,1.49.27c1.37,0,3.06-.69,3.06-3.26a2.9,2.9,0,0,0-3.18-3.15,1.82,1.82,0,0,0-1.14.25c-.17.14-.23.39-.23.94Z"/><path class="cls-1" d="M447.92,139c-1.7.16-1.86.27-1.86,2v8.18c0,1.71.18,1.78,1.86,2v.57h-5.47v-.57c1.69-.21,1.86-.25,1.86-2v-4.08h-7v4.08c0,1.69.16,1.75,1.84,2v.57h-5.45v-.57c1.65-.18,1.83-.25,1.83-2V141c0-1.71-.18-1.82-1.83-2v-.57h5.45V139c-1.64.14-1.84.29-1.84,2v3.24h7V141c0-1.69-.23-1.84-1.86-2v-.57h5.47Z"/><path class="cls-1" d="M456.74,138.15a6.57,6.57,0,0,1,6.62,6.74c0,4.38-3,7.12-6.74,7.12a6.64,6.64,0,0,1-6.77-6.82A6.8,6.8,0,0,1,456.74,138.15Zm-.4.76c-2.29,0-4.37,1.92-4.37,5.73s2.08,6.59,5,6.59c2.47,0,4.32-1.83,4.32-5.77C461.27,141.17,459,138.91,456.34,138.91Z"/><path class="cls-1" d="M476,141.64a7.83,7.83,0,0,0-.66-1.69c-.32-.55-.53-.69-1.65-.69h-2v9.93c0,1.59.17,1.82,2.1,1.94v.57H467.8v-.57c1.89-.12,2.06-.33,2.06-1.94v-9.93H468c-1.12,0-1.45.12-1.79.73a9.41,9.41,0,0,0-.68,1.65h-.61c.12-1.24.24-2.53.31-3.67h.47c.3.49.53.47,1.1.47h8.08a1,1,0,0,0,1-.47h.49c0,1,.08,2.43.18,3.61Z"/><path class="cls-1" d="M485.15,138.15a6.56,6.56,0,0,1,6.61,6.74c0,4.38-3,7.12-6.73,7.12a6.64,6.64,0,0,1-6.77-6.82A6.8,6.8,0,0,1,485.15,138.15Zm-.41.76c-2.28,0-4.36,1.92-4.36,5.73s2.08,6.59,5,6.59c2.47,0,4.32-1.83,4.32-5.77C489.68,141.17,487.42,138.91,484.74,138.91Z"/><path class="cls-1" d="M507.32,146.13c-1.26.16-1.34.29-1.34,1.49v1.71a11.39,11.39,0,0,0,.12,1.94,20.58,20.58,0,0,1-4.63.74c-4.63,0-7.45-2.88-7.45-7,0-4.31,3.51-6.88,7.59-6.88a21.21,21.21,0,0,1,4.25.51c0,.76.14,2,.3,3.29l-.61.12c-.49-1.73-1.08-2.47-2.37-2.9a7,7,0,0,0-1.9-.26c-3.12,0-5.14,2.14-5.14,5.87,0,3.25,1.68,6.47,5.63,6.47a4,4,0,0,0,1.74-.35c.43-.24.69-.46.69-1.3v-1.67c0-1.49-.16-1.66-2.12-1.8v-.59h5.24Z"/><path class="cls-1" d="M521,151.86c-.27,0-.49,0-.76,0a3.62,3.62,0,0,1-3.18-1.75c-.76-1-1.49-2.33-2.14-3.37-.41-.65-.68-.77-1.72-.77h-.71v3.2c0,1.73.22,1.84,1.86,2v.57h-5.45v-.57c1.69-.18,1.83-.27,1.83-2V141c0-1.73-.22-1.8-1.83-2v-.57h5.2a5.79,5.79,0,0,1,3.27.69,3.06,3.06,0,0,1,1.38,2.7,3.79,3.79,0,0,1-2.63,3.51c.37.63,1.25,2,1.86,2.91a18.17,18.17,0,0,0,1.61,2.1,2.86,2.86,0,0,0,1.49.94Zm-7.53-6.63a3.27,3.27,0,0,0,2.24-.59,2.86,2.86,0,0,0,1.13-2.51,2.75,2.75,0,0,0-3-3,1.91,1.91,0,0,0-1.09.21c-.18.14-.24.34-.24.88v5Z"/><path class="cls-1" d="M529.73,151.7v-.57c1.33-.16,1.49-.37,1.21-1.14s-.68-1.82-1.1-3.1h-4.41c-.33.91-.63,1.71-.92,2.55-.45,1.32-.16,1.48,1.51,1.69v.57h-4.71v-.57c1.28-.16,1.61-.31,2.32-2.14l4.23-10.71.65-.13,4,10.88c.65,1.77.83,1.94,2.28,2.1v.57Zm-2-10.87c-.65,1.75-1.34,3.61-2,5.22h3.82Z"/><path class="cls-1" d="M540.85,138.44a5.67,5.67,0,0,1,3.44.88,3.43,3.43,0,0,1,1.35,2.89,4.23,4.23,0,0,1-4.49,4.19,3.78,3.78,0,0,1-.55,0l-1.41-.37v3.18c0,1.71.15,1.75,2,2v.57h-5.63v-.57c1.76-.18,1.84-.31,1.84-2V141c0-1.82-.23-1.86-1.84-2v-.57Zm-1.66,6.83a3.59,3.59,0,0,0,1.49.27c1.37,0,3.06-.69,3.06-3.26a2.9,2.9,0,0,0-3.18-3.15,1.82,1.82,0,0,0-1.14.25c-.16.14-.23.39-.23.94Z"/><path class="cls-1" d="M561.53,139c-1.69.16-1.86.27-1.86,2v8.18c0,1.71.19,1.78,1.86,2v.57h-5.47v-.57c1.7-.21,1.86-.25,1.86-2v-4.08h-7v4.08c0,1.69.17,1.75,1.84,2v.57h-5.45v-.57c1.65-.18,1.84-.25,1.84-2V141c0-1.71-.19-1.82-1.84-2v-.57h5.45V139c-1.63.14-1.84.29-1.84,2v3.24h7V141c0-1.69-.23-1.84-1.86-2v-.57h5.47Z"/><path class="cls-1" d="M574.17,148.46c-.12.53-.67,2.63-.87,3.24h-9.92v-.57c1.9-.14,2-.33,2-2v-8.06c0-1.81-.22-1.92-1.75-2.06v-.57h6.24c1.92,0,2.71,0,3,0,0,.51.1,2,.18,3.12l-.61.1a6.94,6.94,0,0,0-.61-1.55c-.33-.67-.8-.81-2-.81h-1.94c-.63,0-.67.06-.67.65v4.51h2.26c1.53,0,1.63-.31,1.88-1.7H572v4.21h-.63c-.27-1.47-.43-1.68-1.9-1.68H567.2v4.06c0,1.43.44,1.55,1.46,1.57h1.9c1.25,0,1.45-.18,1.9-.71a8.31,8.31,0,0,0,1.1-1.88Z"/><path class="cls-1" d="M587.69,151.86c-.26,0-.49,0-.75,0a3.61,3.61,0,0,1-3.18-1.75c-.76-1-1.49-2.33-2.15-3.37-.4-.65-.67-.77-1.71-.77h-.71v3.2c0,1.73.22,1.84,1.85,2v.57H575.6v-.57c1.69-.18,1.83-.27,1.83-2V141c0-1.73-.22-1.8-1.83-2v-.57h5.2a5.73,5.73,0,0,1,3.26.69,3,3,0,0,1,1.39,2.7,3.79,3.79,0,0,1-2.63,3.51c.37.63,1.24,2,1.85,2.91a19.18,19.18,0,0,0,1.62,2.1,2.86,2.86,0,0,0,1.49.94Zm-7.52-6.63a3.27,3.27,0,0,0,2.24-.59,2.86,2.86,0,0,0,1.12-2.51,2.75,2.75,0,0,0-3-3,1.86,1.86,0,0,0-1.08.21c-.18.14-.24.34-.24.88v5Z"/></g></g></svg>