<?xml version="1.0" encoding="utf-8"?>
<!-- Generator: Adobe Illustrator 24.1.2, SVG Export Plug-In . SVG Version: 6.00 Build 0)  -->
<svg version="1.1" id="Capa_1" xmlns="http://www.w3.org/2000/svg" xmlns:xlink="http://www.w3.org/1999/xlink" x="0px" y="0px"
	 viewBox="0 0 587.8 208" style="enable-background:new 0 0 587.8 208;" xml:space="preserve">
<style type="text/css">
	.st0{fill:#B2902F;}
</style>
<g id="Capa_2_1_">
	<g id="Capa_1-2">
		<path class="st0" d="M410.2,99.3c-0.7-1.8-1.3-3.6-1.8-5.4c-0.6-2.7-2-4.3-4.8-4.5c-2.4-0.1-4.2,1.6-4.5,4.7
			c-0.4,4.9-0.4,9.8-0.6,14.7c-0.1,2.2,1.1,2.3,2.5,1.3c5.9-4.5,11.8-9.1,17.7-13.8c7.8-6.2,12.4-14.8,17.5-23.1
			c0.9-1.4,0.7-2.4-1.3-2.4c-17.6,0.5-35,1.8-51.5,8.5c-1.6,0.7-3.3,1.2-4.2-0.8s0.5-3.3,2-3.8c4.6-1.7,9.2-3.3,13.9-4.6
			c14.5-3.8,29.4-4.6,44.3-5.7c2-0.1,3.9-1.3,4.9-3c4.7-6.9,9.3-13.9,14-20.8c0.5-0.8,1.1-1.6,1.7-2.3c1.2-1.5,2.7-1.3,4.1-0.3
			s1.6,2.5,0.6,4c-4.2,6.2-8.3,12.5-12.4,18.8c-0.4,0.7-0.7,1.5-1,2.2c1.3,0,2.2,0,3.1,0c6-0.2,11.9-0.5,17.9-0.6
			c1.5-0.1,3.1,0,4.6,0.3c2.6,0.6,4.3,3.2,3.7,5.8c-0.1,0.3-0.2,0.6-0.3,0.9c-0.7,1.8-1.8,2.3-3.6,1.7c-8.7-2.8-17.7-2.3-26.6-1.5
			c-2.1,0.2-4.6,2.2-5.9,4c-3.3,4.6-6.3,9.4-8.9,14.4c-4.2,8.2-8.5,16.4-11.7,25c-3.5,9.5-5.9,19.4-8.5,29.3
			c-1.1,4.1-1.4,8.3-2.1,12.5c-0.4,1.8,0.4,3.7,2,4.7c2.2,1.6,2.5,3.3,0.3,4.8c-1.6,1.2-4.2,2.2-5.9,1.7c-1.3-0.3-2.7-3.2-2.6-4.8
			c0.4-6.4,1.1-12.8,2.1-19.2c1.9-11.7,5.8-22.9,10-33.9c0.7-1.8,1.6-3.4,2.6-5.8c-1.2,0.5-1.9,0.6-2.2,1c-5.4,5.5-11.8,9.5-18.6,13
			c-1.6,0.8-1.6,1.8-1.1,3.3c3.4,9.2-3,18.5-10.1,22.1c-1.4,0.6-3,0.8-4.5,0.6c-3.4-0.3-5.4-3.4-3.8-6.5c1-1.9,2.6-3.5,4.4-4.7
			c3-1.8,6.8-7.8,6.4-11.2c-0.2-2-1.5-1.5-2.8-1c-2.9,1.2-5.8,2.5-8.8,3.7c-1.2,0.5-2.6,0.8-3.9,1c-3.6,0.4-5.4-1.3-5.7-4.9
			c0.1-0.6,0-1.2-0.1-1.7c-0.4-0.7-0.8-1.4-1.3-2c-0.5,0.4-1.1,0.9-1.5,1.4c-0.4,0.4-0.7,0.9-1,1.4c-1.4,2.7-3.7,3.4-6.6,2.8
			c-0.9-0.2-2.4-0.1-2.8,0.4c-4.5,6.2-11,9.9-16.9,14.3c-9.3,7-19,13.5-29.7,18.1c-7.3,3.3-15.1,5.3-23,6.1
			c-19.5,1.6-29.4-9.3-30-27.7c-0.4-11.1,2.5-21.6,6.7-31.7c8.3-20.2,20.4-38,35-54.2c13.4-14.9,28.7-27.6,46.6-36.8
			c9.7-5,19.8-9.3,30.9-9.2c3.5,0,7,1,10,2.9c5.1,3.3,5.4,8.8,4,14.3c-3.3,12.8-10.3,23.7-19.4,33.2c-0.7,0.9-1.6,1.6-2.7,2.1
			c-1.3,0.4-2.6,0.2-3.8-0.4c-1.4-1.1-1-2.7,0.2-4c3.2-3.6,6.6-7,9.5-10.9c4.7-6.2,8.6-12.9,10.3-20.8c1.4-6.8-1.4-10.9-8.3-10.5
			c-5.6,0.3-11.2,1.5-16.5,3.5c-28.9,11.3-50.5,31.8-68.7,56.2c-7.9,10.5-14.5,21.8-19.7,33.8c-4.4,10.3-8,20.9-7.6,32.3
			c0.2,7.9,2.3,15.3,9.9,19.7c4.4,2.5,9.4,3,14.3,2.4c8.3-1.1,16.3-3.7,23.8-7.5c15.3-7.5,28.5-18,41.5-28.9c1.1-1,1.9-2.3,2.3-3.7
			c2.3-7.8,6-14.4,13.7-17.9c1.8-0.9,3.7-1.5,5.7-1.9c3.8-0.6,7.3,4.3,6.2,8.8c-0.6,2.5-1.6,4.9-2.3,7.4c-0.9,3,0.2,4.6,3.4,4.8
			c8.3,0.6,8.6,0.2,8.9-8.1c0-5.5,0.6-11.1,1.6-16.5c2-9.3,14.5-9.7,19.1-5.8c0.9,0.8,1.6,1.7,2,2.8C416,90.4,413.6,97,410.2,99.3z
			 M373.9,104.7l-0.9-0.5c-3.6,2.2-6.6,7.8-4.9,10.9L373.9,104.7z"/>
		<path class="st0" d="M71.2,68.3c4.3-4.5,8.7-9.6,13.7-14c3.8-3.3,8.1-6.2,12.6-8.5c4.3-2.2,7.5-0.4,7.6,4.3
			c0,4.3-0.7,8.6-1.8,12.7c-0.9,3.5-2.7,6.8-4,10.2c-0.1,0.4-0.1,0.9-0.1,1.3l0.7,0.5l2.9-3.4c7.9-9.4,15.9-18.7,26.1-25.6
			c5.5-3.7,11.8-6.3,17.9-9.1c2.4-1.2,5.4-0.8,7.2,1.2c2,2,2,4.4,1.3,7c-2,7.8-6.4,14.4-10.5,21.1c-12.3,20-22.6,41.1-31.1,63
			c-5.7,14.8-10.3,30-11.3,46c-0.5,5.4-0.1,10.8,1.1,16c2.7,10.7,11.7,13.8,22.1,9.5c7.6-3.1,18.5-11.8,22.6-17.5
			c-0.3,8.5-16.2,22.1-25.7,24.3c-12.7,3-23-3.7-25.8-16.5c-2.2-10-0.9-19.7,0.9-29.5c3.9-20.3,11.6-39.4,19.5-58.4
			c6.7-16.1,16.1-30.8,25.4-45.5c2.1-3.3,3.7-6.9,5.5-10.4c1-1.9,0.3-2.7-1.8-2.6c-4.5,0.1-7.9,2.7-11.4,5.1
			c-10.5,7-18.8,16.5-26.7,26.2c-6.3,7.7-12.2,15.8-18.2,23.8c-0.9,1.2-1.8,2.7-3.1,3.4s-3.5,1.2-4.7,0.6c-1-0.4-1.9-3-1.5-4.1
			c1.8-5,4-9.9,6.3-14.8c3.5-7.5,7.3-14.8,10.7-22.3c0.9-2.4,1.5-4.8,1.7-7.3c0.2-0.8-0.1-1.7-0.6-2.3c-0.5-0.3-1.6,0-2.3,0.3
			c-5.8,3-10.3,7.5-14.1,12.6C70.1,82,57.6,98.3,46,115.1c-7.1,10.3-12.8,21.7-19.1,32.5c-1,2-2.2,3.8-3.8,5.4
			c-1.3,0.8-2.9,0.9-4.3,0.3c-1.1-0.9-1.6-2.4-1.3-3.8c2.5-6,5.3-11.9,8.5-17.6C40.8,106.1,56.1,80.5,71,54.7
			c5.6-9.6,10.9-19.5,14-30.3c0.6-1.9,0.9-3.9,1.1-5.9c0.4-4.9-1.7-8-6.2-9.9c-5.1-2.2-10.5-2.4-15.9-2c-12.7,0.8-24,5.6-34.9,11.9
			C21.8,22.8,15,27.8,9.7,34.6c-2.3,2.7-3.3,6.2-2.9,9.7c0.3,2.2,0.1,4.2-2.6,4.5c-2.2,0.1-4-1.5-4.2-3.7c0-0.2,0-0.4,0-0.5
			c0.4-3.2,1.2-6.4,2.5-9.4c3.4-7.5,9.6-12.6,16.1-17.3c12.9-9.2,27-15.4,42.8-17.5c7.6-1,15-0.6,22,2.9c5.6,2.7,8.5,7.3,8.5,13.6
			c0,6.7-2.2,12.9-5,18.8C81.9,46.8,76.4,57.7,71.2,68.3z"/>
		<path class="st0" d="M502.1,115.1c-1.2,0.9-2,1.5-2.8,2.2c-4.7,3.7-9.1,7.7-14.1,10.8c-2.5,1.4-5.4,1.9-8.2,1.3
			c-2.2-0.4-3.9-2.2-4.4-4.3c-0.9-4,0.3-13.1,0.5-14.9c-1.5,0.8-2.5,1.2-3.4,1.8c-5.3,3.4-10.9,6.1-17.1,7.3
			c-4.7,0.9-9.2,0.9-12.2-3.5s-2-9.3,0.6-13.6c3.4-5.8,8.8-9.3,14.6-12.2c2.7-1.5,6.1-0.8,8,1.7c2,2.7,1.6,6.4-0.8,8.7
			c-3,2.7-6.4,4.9-9.5,7.4c-1.7,1.3-3.5,2.7-5.6,4.4c3.2,2,5.9,1.1,8.5,0.1c10.1-3.7,17.2-11,23.7-19.1c2.5-3.2,4.8-6.5,6.9-9.9
			c1.2-1.8,8.5-16.8,11-21.7c8.7-17.3,18.8-33.8,31.2-48.7c1.8-2.1,3.8-3.9,6-5.4c2-1.4,4.4-2.4,6.7-0.5s1.9,4.5,0.7,6.9
			c-1.6,3.2-3.3,6.3-5.2,9.2c-13.7,20.5-27.7,40.9-43.2,60.2c-7.7,9.6-12.6,20.8-15.4,32.9c-0.5,2.3-1.2,5.9,0.5,7
			c2.6,1.7,5.3-0.7,7-2c12.3-9.5,22-21.9,28.4-36.1c5.9-12.9,12.5-25.5,19.3-38c6.6-12.3,14.5-23.8,23.5-34.5
			c1.6-1.8,3.4-3.4,5.3-4.8c1.9-1.5,4.3-2,6.5-0.8s2,3.8,1.2,5.7c-2.6,5.5-5,11.3-8.4,16.3c-11.1,16-22.8,31.5-33.9,47.4
			c-4.9,6.8-9.1,14-12.7,21.6c-3,6.7-6.1,13.4-6.1,21.2c0,1.4,0.4,3.8,1.5,4.4s3.6,0.4,4.8-0.4c3.4-2.2,6.5-4.8,9.3-7.6
			c4.6-4.8,12.7-14.1,16.5-19.3c4.2-1.9-5.1,19.3-15.5,27.3c-3.6,3.1-7.5,5.6-12.3,6.6c-5.3,1.1-9.5-1.6-10.4-6.9
			C502.7,120.7,502.5,118.3,502.1,115.1z M453.6,98.9c-4.4,0-8.7,5.4-7.6,9.7L453.6,98.9z"/>
		<path class="st0" d="M186.8,100.2c2.4-0.4,4.7-0.9,7.1-1c2.1-0.1,4.3-0.3,6.2,0.4c2.3,1,4.9,0.7,6.9-0.8c2.5-1.7,5.3-3.1,8.2-3.9
			c7-1.7,10.8,2.5,8.8,9.5c-0.6,2-1.2,4.1-1.8,6.1c-0.8,2-0.1,4.2,1.7,5.3c1.9,1.3,3.4-0.2,4.6-1.3c1.8-1.7,3.1-3.9,4.9-5.6
			c0.7-0.7,2.4-1.3,3.1-0.9c0.9,0.7,1.3,1.9,1.1,3c-2.6,7.5-12,14.3-19.9,9.4c-2-1.2-3.2-3.7-5-5.8c-1.1,1.3-2.6,3.1-4.1,4.8
			c-1,1.2-1.9,2.7-3.2,3.3c-1.5,0.7-3.2,0.8-4.8,0.4c-2-0.5-3.2-2.5-2.7-4.5c0.8-3.7,1.8-7.4,2.8-11.1c0.5-1.3,1-2.5,1.6-3.7
			c-4.5,1.2-8.2,2-11.8,3.2c-2.5,0.8-4.7,1.5-7.1,0c-0.5-0.3-2,0.2-2.5,0.8c-1.8,2-3.4,4.2-5.1,6.3c-4.3,5.2-9.3,8.9-16.5,8.4
			c-5.5-0.4-7.4-2.2-7.9-7.6c0-0.3-0.2-0.5-0.6-1.2c-0.7,0.8-1.3,1.4-1.9,2.1c-1.7,1.9-3.3,4-5.2,5.8c-1.6,1.6-3.9,2.4-5.8,1
			c-1.4-1.1-2.8-3.4-2.6-5c1.1-8.5,4.2-16.2,11.7-21.2c2-1.3,4.3-2,6.7-2.2c4.3-0.4,7,2.2,6.8,6.5c-0.1,3-1.2,6-1.3,9.1
			c-0.1,2,0.7,4,1.1,6c1.9-0.7,4.4-0.8,5.5-2.1c3.6-4.2,6.8-8.8,10.1-13.2c2.4-3.1,4.6-6.3,7.1-9.4c0.7-1,1.7-1.8,2.9-2.2
			c1.4-0.3,3.6-0.2,4.3,0.7s0.5,3.1-0.1,4.4c-1.1,1.9-2.4,3.8-3.9,5.5L186.8,100.2z M215,102.9c-3.7-0.2-8.1,5.1-7.6,8.5L215,102.9z
			 M144.1,110.9c3.3-2.8,6-7,5.8-9C146.6,103.4,143.7,107.8,144.1,110.9L144.1,110.9z"/>
		<path class="st0" d="M427.2,138.4c1.2-0.1,2.4,0.2,3.5,0.9c0.9,0.7,1.4,1.8,1.4,2.9c0,2.3-1.9,4.2-4.3,4.2c-0.1,0-0.2,0-0.2,0
			c-0.2,0-0.4,0-0.5,0l-1.4-0.4v3.2c0,1.7,0.1,1.8,2,2v0.6H422v-0.6c1.8-0.2,1.8-0.3,1.8-2V141c0-1.8-0.2-1.9-1.8-2v-0.6
			L427.2,138.4z M425.6,145.3c0.5,0.2,1,0.3,1.5,0.3c1.4,0,3.1-0.7,3.1-3.3c0.1-1.6-1-3-2.6-3.2c-0.2,0-0.4,0-0.6,0
			c-0.4,0-0.8,0-1.1,0.3c-0.2,0.1-0.2,0.4-0.2,0.9L425.6,145.3z"/>
		<path class="st0" d="M447.9,139c-1.7,0.2-1.9,0.3-1.9,2v8.2c0,1.7,0.2,1.8,1.9,2v0.6h-5.5v-0.6c1.7-0.2,1.9-0.3,1.9-2v-4.1h-7v4.1
			c0,1.7,0.2,1.8,1.8,2v0.6h-5.5v-0.6c1.6-0.2,1.8-0.3,1.8-2V141c0-1.7-0.2-1.8-1.8-2v-0.6h5.5v0.6c-1.6,0.1-1.8,0.3-1.8,2v3.2h7
			V141c0-1.7-0.2-1.8-1.9-2v-0.6h5.5V139z"/>
		<path class="st0" d="M456.7,138.1c3.6,0,6.6,2.9,6.6,6.5c0,0.1,0,0.1,0,0.2c0,4.4-3,7.1-6.7,7.1c-3.7,0.1-6.7-2.8-6.8-6.5
			c0-0.1,0-0.2,0-0.3c-0.1-3.8,2.8-6.9,6.6-7C456.5,138.1,456.6,138.1,456.7,138.1z M456.3,138.9c-2.3,0-4.4,1.9-4.4,5.7
			s2.1,6.6,5,6.6c2.5,0,4.3-1.8,4.3-5.8C461.3,141.2,459,138.9,456.3,138.9L456.3,138.9z"/>
		<path class="st0" d="M476,141.6c-0.2-0.6-0.4-1.2-0.7-1.7c-0.3-0.6-0.5-0.7-1.6-0.7h-2v9.9c0,1.6,0.2,1.8,2.1,1.9v0.6h-6v-0.6
			c1.9-0.1,2.1-0.3,2.1-1.9v-9.9H468c-1.1,0-1.5,0.1-1.8,0.7c-0.3,0.5-0.5,1.1-0.7,1.6h-0.6c0.1-1.2,0.2-2.5,0.3-3.7h0.5
			c0.3,0.5,0.5,0.5,1.1,0.5h8.1c0.4,0.1,0.8-0.1,1-0.5h0.5c0,1,0.1,2.4,0.2,3.6L476,141.6z"/>
		<path class="st0" d="M485.1,138.1c3.6,0,6.6,2.9,6.6,6.5c0,0.1,0,0.2,0,0.2c0,4.4-3,7.1-6.7,7.1c-3.7,0.1-6.7-2.8-6.8-6.5
			c0-0.1,0-0.2,0-0.3c-0.1-3.8,2.8-6.9,6.6-7C484.9,138.1,485,138.1,485.1,138.1z M484.7,138.9c-2.3,0-4.4,1.9-4.4,5.7
			s2.1,6.6,5,6.6c2.5,0,4.3-1.8,4.3-5.8C489.7,141.2,487.4,138.9,484.7,138.9L484.7,138.9z"/>
		<path class="st0" d="M507.3,146.1c-1.3,0.2-1.3,0.3-1.3,1.5v1.7c0,0.6,0,1.3,0.1,1.9c-1.5,0.4-3.1,0.7-4.6,0.7
			c-4.6,0-7.5-2.9-7.5-7c0-4.3,3.5-6.9,7.6-6.9c1.4,0,2.9,0.2,4.3,0.5c0,0.8,0.1,2,0.3,3.3l-0.6,0.1c-0.5-1.7-1.1-2.5-2.4-2.9
			c-0.6-0.2-1.3-0.3-1.9-0.3c-3.1,0-5.1,2.1-5.1,5.9c0,3.3,1.7,6.5,5.6,6.5c0.6,0,1.2-0.1,1.7-0.4c0.4-0.2,0.7-0.5,0.7-1.3v-1.7
			c0-1.5-0.2-1.7-2.1-1.8v-0.6h5.2L507.3,146.1z"/>
		<path class="st0" d="M521,151.9c-0.3,0-0.5,0-0.8,0c-1.3,0-2.5-0.6-3.2-1.8c-0.8-1-1.5-2.3-2.1-3.4c-0.4-0.6-0.7-0.8-1.7-0.8h-0.7
			v3.2c0,1.7,0.2,1.8,1.9,2v0.6h-5.5v-0.6c1.7-0.2,1.8-0.3,1.8-2V141c0-1.7-0.2-1.8-1.8-2v-0.6h5.2c1.1-0.1,2.3,0.1,3.3,0.7
			c0.9,0.6,1.4,1.6,1.4,2.7c0,1.6-1.1,3-2.6,3.5c0.4,0.6,1.3,2,1.9,2.9c0.5,0.7,1,1.4,1.6,2.1c0.4,0.5,0.9,0.8,1.5,0.9L521,151.9z
			 M513.5,145.2c0.8,0.1,1.6-0.1,2.2-0.6c0.8-0.6,1.2-1.5,1.1-2.5c0.1-1.5-1-2.9-2.5-3c-0.2,0-0.4,0-0.5,0c-0.4,0-0.8,0-1.1,0.2
			c-0.2,0.1-0.2,0.3-0.2,0.9v5L513.5,145.2z"/>
		<path class="st0" d="M529.7,151.7v-0.6c1.3-0.2,1.5-0.4,1.2-1.1s-0.7-1.8-1.1-3.1h-4.4c-0.3,0.9-0.6,1.7-0.9,2.6
			c-0.5,1.3-0.2,1.5,1.5,1.7v0.6h-4.7v-0.6c1.3-0.2,1.6-0.3,2.3-2.1l4.2-10.7l0.7-0.1l4,10.9c0.7,1.8,0.8,1.9,2.3,2.1v0.6H529.7z
			 M527.7,140.8c-0.7,1.8-1.3,3.6-2,5.2h3.8L527.7,140.8z"/>
		<path class="st0" d="M540.8,138.4c1.2-0.1,2.4,0.2,3.4,0.9c0.9,0.7,1.4,1.8,1.3,2.9c0,2.3-1.9,4.2-4.3,4.2c-0.1,0-0.2,0-0.2,0
			c-0.2,0-0.4,0-0.5,0l-1.4-0.4v3.2c0,1.7,0.2,1.8,2,2v0.6h-5.6v-0.6c1.8-0.2,1.8-0.3,1.8-2V141c0-1.8-0.2-1.9-1.8-2v-0.6
			L540.8,138.4z M539.2,145.3c0.5,0.2,1,0.3,1.5,0.3c1.4,0,3.1-0.7,3.1-3.3c0.1-1.6-1-3-2.6-3.2c-0.2,0-0.4,0-0.6,0
			c-0.4,0-0.8,0-1.1,0.3c-0.2,0.1-0.2,0.4-0.2,0.9V145.3z"/>
		<path class="st0" d="M561.5,139c-1.7,0.2-1.9,0.3-1.9,2v8.2c0,1.7,0.2,1.8,1.9,2v0.6h-5.5v-0.6c1.7-0.2,1.9-0.3,1.9-2v-4.1h-7v4.1
			c0,1.7,0.2,1.8,1.8,2v0.6h-5.5v-0.6c1.7-0.2,1.8-0.3,1.8-2V141c0-1.7-0.2-1.8-1.8-2v-0.6h5.5v0.6c-1.6,0.1-1.8,0.3-1.8,2v3.2h7
			V141c0-1.7-0.2-1.8-1.9-2v-0.6h5.5V139z"/>
		<path class="st0" d="M574.2,148.5c-0.1,0.5-0.7,2.6-0.9,3.2h-9.9v-0.6c1.9-0.1,2-0.3,2-2v-8.1c0-1.8-0.2-1.9-1.8-2.1v-0.6h6.2
			c1.9,0,2.7,0,3,0c0,0.5,0.1,2,0.2,3.1l-0.6,0.1c-0.1-0.5-0.3-1.1-0.6-1.6c-0.3-0.7-0.8-0.8-2-0.8h-1.9c-0.6,0-0.7,0.1-0.7,0.6v4.5
			h2.3c1.5,0,1.6-0.3,1.9-1.7h0.6v4.2h-0.6c-0.3-1.5-0.4-1.7-1.9-1.7h-2.3v4.1c0,1.4,0.4,1.6,1.5,1.6h1.9c1.3,0,1.5-0.2,1.9-0.7
			c0.4-0.6,0.8-1.2,1.1-1.9L574.2,148.5z"/>
		<path class="st0" d="M587.7,151.9c-0.3,0-0.5,0-0.8,0c-1.3,0-2.5-0.6-3.2-1.8c-0.8-1-1.5-2.3-2.2-3.4c-0.4-0.6-0.7-0.8-1.7-0.8
			h-0.7v3.2c0,1.7,0.2,1.8,1.8,2v0.6h-5.4v-0.6c1.7-0.2,1.8-0.3,1.8-2V141c0-1.7-0.2-1.8-1.8-2v-0.6h5.2c1.1-0.1,2.3,0.1,3.3,0.7
			c0.9,0.6,1.5,1.6,1.4,2.7c0,1.6-1.1,3-2.6,3.5c0.4,0.6,1.2,2,1.8,2.9c0.5,0.7,1,1.4,1.6,2.1c0.4,0.5,0.9,0.8,1.5,0.9L587.7,151.9z
			 M580.2,145.2c0.8,0.1,1.6-0.1,2.2-0.6c0.8-0.6,1.2-1.5,1.1-2.5c0.1-1.5-1-2.9-2.5-3c-0.2,0-0.4,0-0.5,0c-0.4,0-0.7,0-1.1,0.2
			c-0.2,0.1-0.2,0.3-0.2,0.9v5L580.2,145.2z"/>
	</g>
</g>
</svg>
